<svg width="20" height="16" viewBox="0 0 20 16" fill="none" xmlns="http://www.w3.org/2000/svg">
<path d="M18.0332 7C18.5855 7 19.0332 7.44772 19.0332 8C19.0332 8.55228 18.5855 9 18.0332 9V7ZM0.526096 8.70711C0.135572 8.31658 0.135572 7.68342 0.526096 7.29289L6.89006 0.928932C7.28058 0.538408 7.91375 0.538408 8.30427 0.928932C8.6948 1.31946 8.6948 1.95262 8.30427 2.34315L2.64742 8L8.30427 13.6569C8.6948 14.0474 8.6948 14.6805 8.30427 15.0711C7.91375 15.4616 7.28058 15.4616 6.89006 15.0711L0.526096 8.70711ZM18.0332 9H1.2332V7H18.0332V9Z" fill="white"/>
</svg>
