<svg width="20" height="16" viewBox="0 0 20 16" fill="none" xmlns="http://www.w3.org/2000/svg">
<path d="M1.47266 7C0.920372 7 0.472656 7.44772 0.472656 8C0.472656 8.55228 0.920372 9 1.47266 9V7ZM18.9798 8.70711C19.3703 8.31658 19.3703 7.68342 18.9798 7.29289L12.6158 0.928932C12.2253 0.538408 11.5921 0.538408 11.2016 0.928932C10.8111 1.31946 10.8111 1.95262 11.2016 2.34315L16.8584 8L11.2016 13.6569C10.8111 14.0474 10.8111 14.6805 11.2016 15.0711C11.5921 15.4616 12.2253 15.4616 12.6158 15.0711L18.9798 8.70711ZM1.47266 9H18.2727V7H1.47266V9Z" fill="white"/>
</svg>
